<svg width="16" height="16" viewBox="0 0 16 16" fill="none" xmlns="http://www.w3.org/2000/svg">
<path d="M7.2002 1.59998C6.75837 1.59998 6.4002 1.95815 6.4002 2.39998C6.4002 2.8418 6.75837 3.19998 7.2002 3.19998H8.8002C9.24202 3.19998 9.6002 2.8418 9.6002 2.39998C9.6002 1.95815 9.24202 1.59998 8.8002 1.59998H7.2002Z" fill="#26AF4C"/>
<path fill-rule="evenodd" clip-rule="evenodd" d="M3.2002 3.99998C3.2002 3.11632 3.91654 2.39998 4.8002 2.39998C4.8002 3.72546 5.87471 4.79998 7.2002 4.79998H8.8002C10.1257 4.79998 11.2002 3.72546 11.2002 2.39998C12.0839 2.39998 12.8002 3.11632 12.8002 3.99998V12.8C12.8002 13.6836 12.0839 14.4 11.2002 14.4H4.8002C3.91654 14.4 3.2002 13.6836 3.2002 12.8V3.99998ZM5.6002 7.19998C5.15837 7.19998 4.8002 7.55815 4.8002 7.99998C4.8002 8.4418 5.15837 8.79998 5.6002 8.79998H5.6082C6.05002 8.79998 6.4082 8.4418 6.4082 7.99998C6.4082 7.55815 6.05002 7.19998 5.6082 7.19998H5.6002ZM8.0002 7.19998C7.55837 7.19998 7.2002 7.55815 7.2002 7.99998C7.2002 8.4418 7.55837 8.79998 8.0002 8.79998H10.4002C10.842 8.79998 11.2002 8.4418 11.2002 7.99998C11.2002 7.55815 10.842 7.19998 10.4002 7.19998H8.0002ZM5.6002 10.4C5.15837 10.4 4.8002 10.7581 4.8002 11.2C4.8002 11.6418 5.15837 12 5.6002 12H5.6082C6.05002 12 6.4082 11.6418 6.4082 11.2C6.4082 10.7581 6.05002 10.4 5.6082 10.4H5.6002ZM8.0002 10.4C7.55837 10.4 7.2002 10.7581 7.2002 11.2C7.2002 11.6418 7.55837 12 8.0002 12H10.4002C10.842 12 11.2002 11.6418 11.2002 11.2C11.2002 10.7581 10.842 10.4 10.4002 10.4H8.0002Z" fill="#26AF4C"/>
</svg>
